<svg width="30" height="30" viewBox="0 0 30 30" fill="none" xmlns="http://www.w3.org/2000/svg">
<path fill-rule="evenodd" clip-rule="evenodd" d="M15 1.5625C11.7208 1.5625 9.0625 4.22081 9.0625 7.5C9.0625 10.7792 11.7208 13.4375 15 13.4375C18.2792 13.4375 20.9375 10.7792 20.9375 7.5C20.9375 4.22081 18.2792 1.5625 15 1.5625ZM10.9375 7.5C10.9375 5.25634 12.7563 3.4375 15 3.4375C17.2437 3.4375 19.0625 5.25634 19.0625 7.5C19.0625 9.74366 17.2437 11.5625 15 11.5625C12.7563 11.5625 10.9375 9.74366 10.9375 7.5Z" fill="#5A6F07"/>
<path d="M24.8194 18.2161C25.1909 18.5767 25.1998 19.1703 24.8392 19.5418L22.5478 21.9029C22.3626 22.0937 22.1052 22.1969 21.8396 22.1868C21.5739 22.1768 21.3251 22.0544 21.1549 21.8502L20.113 20.6002C19.7815 20.2025 19.8352 19.6114 20.2329 19.2799C20.6306 18.9484 21.2218 19.002 21.5533 19.3998L21.928 19.8493L23.4937 18.236C23.8543 17.8644 24.4478 17.8555 24.8194 18.2161Z" fill="#5A6F07"/>
<path fill-rule="evenodd" clip-rule="evenodd" d="M18.4683 15.6411C17.3774 15.4276 16.2106 15.3125 15 15.3125C12.1081 15.3125 9.44366 15.9699 7.46931 17.0804C5.52435 18.1745 4.0625 19.8326 4.0625 21.875L4.06242 22.0024C4.061 23.4548 4.05923 25.2775 5.65801 26.5794C6.44485 27.2202 7.5456 27.6758 9.03276 27.9768C10.5241 28.2787 12.4678 28.4375 15 28.4375C18.5851 28.4375 21.0124 28.1201 22.6495 27.5107C24.1231 26.9621 24.9966 26.1583 25.4629 25.1465C27.2409 24.1207 28.4375 22.2001 28.4375 20C28.4375 16.7208 25.7792 14.0625 22.5 14.0625C20.9436 14.0625 19.5271 14.6613 18.4683 15.6411ZM18.4375 20C18.4375 17.7563 20.2563 15.9375 22.5 15.9375C24.7437 15.9375 26.5625 17.7563 26.5625 20C26.5625 22.2437 24.7437 24.0625 22.5 24.0625C20.2563 24.0625 18.4375 22.2437 18.4375 20ZM17.1946 17.3312C16.7902 18.1336 16.5625 19.0402 16.5625 20C16.5625 22.9866 18.7676 25.4582 21.6385 25.8755C20.3001 26.2958 18.2225 26.5625 15 26.5625C12.5322 26.5625 10.7259 26.4065 9.40474 26.1391C8.0794 25.8708 7.30515 25.5027 6.84199 25.1255C5.98789 24.43 5.9375 23.5098 5.9375 21.875C5.9375 20.8108 6.71422 19.6564 8.38855 18.7146C10.0335 17.7893 12.3691 17.1875 15 17.1875C15.7576 17.1875 16.4924 17.2375 17.1946 17.3312Z" fill="#5A6F07"/>
</svg>
